<?xml version="1.0" standalone="no"?>
<!DOCTYPE svg PUBLIC "-//W3C//DTD SVG 1.1//EN" "http://www.w3.org/Graphics/SVG/1.1/DTD/svg11.dtd">
<svg xmlns="http://www.w3.org/2000/svg" viewBox="0 0 574 574" height="574" width="574" version="1.1"><defs><clipPath id="logoClip"><path d="M -200,-200 H 575 V 574 H -574 Z M1.13818901,84.9014153 C1.91923449,38.211992 40.2825109,0.49989408 87.317778,0.49989408 C110.332142,0.509336439 132.003028,9.45137479 148.262385,25.6518696 C164.528843,41.8590424 173.508744,63.4664658 173.500083,86.3878665 C173.480622,133.728725 134.816559,172.210793 87.3109602,172.210793 C74.4602019,172.206772 61.8097721,169.357332 50.2810675,163.891667 L14.9049093,173.126973 C6.33823314,175.363392 -1.4363851,167.486343 0.911963158,158.949672 L10.2824193,124.886364 C4.38783167,113.20569 1.25543271,100.325163 1.12997098,87.1768343 L1.12605435,86.3189645 L1.13818901,84.9014153 Z" clip-rule="evenodd" transform="translate(200,200)"></path></clipPath></defs><g clip-path="url(#logoClip)" fill="#000000" fill-rule="evenodd" stroke="none"><path d="M 0 0 h 98 v 98 h -98 v -98 M 14 14 h 70 v 70 h -70 v -70"></path><path d="M 112 0 h 28 v 14 h -28 v -14"></path><path d="M 168 0 h 14 v 14 h -14 v -14"></path><path d="M 210 0 h 42 v 28 h -14 v -14 h -28 v -14"></path><path d="M 266 0 h 28 v 14 h -14 v 14 h -14 v -28"></path><path d="M 420 0 h 28 v 14 h 14 v 98 h -14 v -28 h -14 v -14 h 14 v -14 h -14 v -14 h -14 v 14 h -14 v -14 h -14 v 28 h -28 v -28 h 14 v -14 h 14 v -14 h 14 v 14 h 14 v -28 M 434 14 h 14 v 14 h -14 v -14"></path><path d="M 476 0 h 98 v 98 h -98 v -98 M 490 14 h 70 v 70 h -70 v -70"></path><path d="M 196 14 h 14 v 14 h 28 v 14 h 28 v 14 h 14 v 14 h -28 v -14 h -28 v 14 h -42 v -28 h 14 v -28 M 196 42 h 14 v 14 h -14 v -14"></path><path d="M 322 14 h 28 v 14 h 14 v 14 h -14 v 28 h -14 v -42 h -14 v -14"></path><path d="M 28 28 h 42 v 42 h -42 v -42"></path><path d="M 126 28 h 14 v 14 h 14 v -14 h 28 v 14 h -14 v 28 h -28 v 14 h 14 v 42 h -70 v -14 h 28 v -70 h 14 v -14 M 126 84 h 14 v 14 h -14 v -14"></path><path d="M 294 28 h 14 v 14 h 14 v 28 h -14 v -14 h -14 v -28"></path><path d="M 504 28 h 42 v 42 h -42 v -42"></path><path d="M 168 70 h 14 v 28 h 14 v 14 h 28 v 28 h -14 v -14 h -14 v 14 h -28 v -70"></path><path d="M 238 70 h 14 v 14 h -14 v -14"></path><path d="M 280 70 h 14 v 28 h 14 v 14 h 14 v 14 h -14 v 14 h -14 v -14 h -14 v -14 h -14 v -14 h 14 v -28"></path><path d="M 392 70 h 28 v 14 h 14 v 28 h -14 v 14 h -14 v -14 h -14 v -42 M 406 84 h 14 v 14 h -14 v -14"></path><path d="M 196 84 h 14 v 14 h -14 v -14"></path><path d="M 224 84 h 14 v 14 h -14 v -14"></path><path d="M 252 84 h 14 v 14 h -14 v -14"></path><path d="M 308 84 h 14 v 14 h -14 v -14"></path><path d="M 336 84 h 14 v 14 h -14 v -14"></path><path d="M 364 84 h 14 v 28 h -14 v -28"></path><path d="M 238 98 h 14 v 14 h -14 v -14"></path><path d="M 322 98 h 14 v 14 h -14 v -14"></path><path d="M 0 112 h 14 v 14 h -14 v -14"></path><path d="M 56 112 h 14 v 28 h -14 v -28"></path><path d="M 336 112 h 14 v 14 h -14 v -14"></path><path d="M 434 112 h 14 v 14 h -14 v -14"></path><path d="M 462 112 h 70 v 28 h -14 v 14 h 14 v 14 h -14 v 42 h -14 v 28 h 28 v -14 h 14 v -14 h 14 v 14 h 14 v 42 h -14 v 14 h -14 v -28 h -14 v 14 h -14 v -14 h -14 v 28 h -14 v -14 h -14 v -14 h -14 v 14 h -14 v -14 h -14 v -14 h 56 v -28 h -28 v -28 h -14 v -14 h -14 v 14 h -42 v -14 h 14 v -28 h 14 v 14 h 28 v -14 h 42 v -14 h -28 v -14 M 504 126 h 14 v 14 h -14 v -14 M 462 154 h 14 v 14 h 14 v -14 h 14 v 14 h -14 v 28 h -14 v -14 h -14 v -28"></path><path d="M 560 112 h 14 v 14 h -14 v -14"></path><path d="M 252 126 h 28 v 14 h -28 v -14"></path><path d="M 322 126 h 14 v 14 h 14 v 14 h -28 v -28"></path><path d="M 364 126 h 28 v 42 h -28 v -42"></path><path d="M 420 126 h 14 v 14 h -14 v -14"></path><path d="M 546 126 h 14 v 14 h 14 v 28 h -14 v -14 h -14 v -28"></path><path d="M 0 140 h 56 v 14 h -42 v 14 h 14 v 14 h 14 v -14 h 14 v 42 h 28 v 14 h 14 v 14 h 28 v 14 h -14 v 14 h 42 v 14 h 28 v -14 h 14 v 42 h 14 v 14 h -42 v 14 h -14 v -14 h -28 v -14 h 14 v -14 h -14 v -14 h -14 v 14 h -28 v 14 h 14 v 14 h -28 v 14 h 28 v 14 h -28 v 14 h -14 v -42 h -14 v 14 h -14 v -14 h -14 v 14 h -14 v -28 h 14 v -42 h -14 v -14 h 14 v -14 h 14 v 28 h 14 v -70 h -28 v -14 h -14 v -42 M 56 238 h 14 v 14 h 14 v -14 h 14 v 14 h -14 v 14 h 14 v 14 h -14 v -14 h -14 v -14 h -14 v -14 M 42 266 h 14 v 14 h -14 v 14 h -14 v -14 h 14 v -14 M 154 294 h 28 v 14 h -28 v -14"></path><path d="M 84 140 h 28 v 14 h -28 v -14"></path><path d="M 126 140 h 14 v 14 h 14 v -14 h 14 v 28 h -28 v 14 h -14 v -14 h -14 v -14 h 14 v -14"></path><path d="M 196 140 h 14 v 14 h 14 v -14 h 28 v 14 h 28 v -14 h 14 v 28 h -14 v 14 h 14 v 14 h 28 v 14 h -14 v 14 h -14 v -14 h -14 v -14 h -14 v -14 h -14 v -14 h -28 v 14 h -14 v -14 h -14 v -28"></path><path d="M 70 154 h 14 v 14 h 14 v 14 h -14 v 14 h -14 v -42"></path><path d="M 308 154 h 14 v 28 h -14 v -28"></path><path d="M 168 168 h 14 v 14 h -14 v -14"></path><path d="M 336 168 h 14 v 14 h -14 v -14"></path><path d="M 154 182 h 14 v 28 h -14 v -28"></path><path d="M 224 182 h 28 v 14 h -14 v 14 h -14 v -28"></path><path d="M 434 182 h 14 v 28 h 14 v 14 h -28 v 14 h -14 v -14 h -42 v -14 h -14 v 28 h 14 v 14 h -28 v 14 h -14 v 14 h -14 v 14 h -14 v -28 h 14 v -14 h 14 v -14 h 14 v -14 h -14 v -14 h 14 v -14 h 42 v 14 h 14 v -14 h 14 v 14 h 14 v -28"></path><path d="M 532 182 h 14 v 14 h -14 v -14"></path><path d="M 0 196 h 14 v 42 h -14 v -42"></path><path d="M 84 196 h 42 v 14 h -14 v 14 h -14 v -14 h -14 v -14"></path><path d="M 182 196 h 14 v 28 h 14 v 14 h 14 v -14 h 14 v 28 h -14 v 28 h -14 v -28 h -28 v 14 h -28 v -14 h 14 v -42 h 14 v -14"></path><path d="M 252 196 h 14 v 14 h -14 v -14"></path><path d="M 126 210 h 28 v 28 h -28 v -28"></path><path d="M 518 210 h 14 v 14 h -14 v -14"></path><path d="M 266 224 h 28 v 14 h -14 v 28 h 14 v 14 h -28 v 14 h -14 v -14 h -14 v -28 h 14 v -14 h 14 v -14 M 252 252 h 14 v 14 h -14 v -14"></path><path d="M 322 224 h 14 v 14 h -14 v -14"></path><path d="M 294 238 h 28 v 14 h -28 v -14"></path><path d="M 392 238 h 28 v 14 h -14 v 14 h -14 v -28"></path><path d="M 420 252 h 14 v 14 h -14 v -14"></path><path d="M 364 266 h 14 v 14 h 14 v 14 h 14 v 14 h 14 v 14 h 28 v 14 h 14 v 14 h 14 v 14 h -14 v 14 h 14 v 14 h 14 v -14 h 14 v 14 h 14 v 14 h 14 v 14 h -42 v -14 h -28 v -14 h -42 v 28 h -14 v 14 h -14 v -28 h -14 v -14 h -14 v -14 h 14 v -14 h -28 v -14 h 56 v -14 h -14 v -14 h -14 v 14 h -14 v -28 h 14 v -14 h -42 v -14 h 28 v -14 M 434 350 h 14 v 28 h -14 v -28 M 392 364 h 28 v 14 h -14 v 28 h -14 v -42"></path><path d="M 462 266 h 14 v 42 h 14 v -14 h 14 v 14 h 14 v 14 h 14 v -14 h 14 v 56 h -14 v -14 h -14 v 14 h -14 v -14 h -14 v -14 h -14 v -14 h -28 v -14 h -28 v -14 h 14 v -14 h 28 v -14 M 448 294 h 14 v 14 h -14 v -14 M 490 322 h 14 v 14 h -14 v -14"></path><path d="M 504 280 h 14 v 14 h -14 v -14"></path><path d="M 532 280 h 14 v 14 h -14 v -14"></path><path d="M 560 280 h 14 v 42 h -14 v -42"></path><path d="M 112 294 h 14 v 14 h -14 v -14"></path><path d="M 210 294 h 28 v 14 h -28 v -14"></path><path d="M 266 294 h 28 v 28 h -14 v -14 h -14 v -14"></path><path d="M 98 322 h 28 v 14 h 28 v 28 h 14 v 14 h -14 v 14 h 56 v 14 h -28 v 14 h -14 v -14 h -28 v 28 h -14 v 14 h -14 v -28 h 14 v -28 h -14 v -14 h -42 v -14 h 42 v -28 h -14 v -14 M 126 350 h 14 v 28 h -14 v -28"></path><path d="M 224 322 h 42 v 14 h -28 v 14 h 14 v 14 h -14 v 14 h -28 v -28 h -14 v -14 h 28 v -14"></path><path d="M 294 322 h 14 v 14 h 28 v 28 h 14 v 14 h -42 v 14 h -14 v 14 h -14 v -14 h -14 v -14 h 14 v -28 h 14 v -28 M 294 350 h 28 v 14 h -28 v -14"></path><path d="M 336 322 h 14 v 14 h -14 v -14"></path><path d="M 168 336 h 14 v 14 h -14 v -14"></path><path d="M 266 336 h 14 v 14 h -14 v -14"></path><path d="M 560 336 h 14 v 14 h -14 v -14"></path><path d="M 0 350 h 14 v 14 h 28 v 42 h -28 v -14 h -14 v -42 M 14 378 h 14 v 14 h -14 v -14"></path><path d="M 182 350 h 14 v 28 h -14 v -28"></path><path d="M 252 364 h 14 v 14 h -14 v -14"></path><path d="M 56 378 h 14 v 14 h -14 v -14"></path><path d="M 518 378 h 14 v 14 h -14 v -14"></path><path d="M 546 378 h 14 v 14 h 14 v 14 h -14 v 14 h 14 v 28 h -14 v -14 h -28 v -14 h 14 v -42"></path><path d="M 70 392 h 42 v 14 h -42 v -14"></path><path d="M 224 392 h 14 v 28 h -28 v -14 h 14 v -14"></path><path d="M 0 406 h 14 v 14 h -14 v -14"></path><path d="M 42 406 h 14 v 28 h 14 v -14 h 28 v 14 h -14 v 14 h 14 v 14 h -56 v -56"></path><path d="M 252 406 h 28 v 28 h 14 v 14 h -28 v 14 h -14 v -14 h -28 v -14 h 14 v -14 h 14 v -14 M 252 420 h 14 v 14 h -14 v -14"></path><path d="M 294 406 h 28 v 14 h -28 v -14"></path><path d="M 336 406 h 28 v 14 h -14 v 14 h -14 v 14 h -14 v 14 h -14 v -28 h 14 v -14 h 14 v -14"></path><path d="M 434 406 h 28 v 14 h 14 v 28 h 42 v 42 h 14 v -14 h 14 v 56 h -14 v 14 h -14 v -28 h -14 v 14 h -14 v -14 h -42 v -14 h -14 v 14 h -14 v 14 h -28 v 14 h -14 v 14 h -14 v -28 h -28 v -14 h -14 v -14 h 14 v -14 h 14 v -14 h 42 v 14 h 14 v -14 h 14 v -14 h 14 v -14 h 28 v -14 h -14 v -14 h -14 v -14 M 462 462 h 42 v 42 h -42 v -42 M 420 476 h 28 v 14 h -28 v -14 M 364 490 h 14 v 14 h 14 v 14 h -28 v -28 M 406 504 h 14 v 14 h -14 v -14"></path><path d="M 196 420 h 14 v 28 h -14 v -28"></path><path d="M 420 420 h 14 v 14 h -14 v -14"></path><path d="M 140 434 h 28 v 14 h -14 v 28 h -14 v 14 h 14 v 14 h -14 v 28 h -14 v -14 h -14 v -14 h 14 v -14 h -14 v -28 h 28 v -28"></path><path d="M 364 434 h 14 v 14 h 28 v 14 h -70 v -14 h 28 v -14"></path><path d="M 0 448 h 28 v 14 h -28 v -14"></path><path d="M 168 448 h 14 v 14 h -14 v -14"></path><path d="M 182 462 h 14 v 14 h 42 v 28 h -14 v 42 h 42 v -14 h -28 v -14 h 28 v -14 h 28 v 14 h -14 v 28 h 14 v -14 h 14 v 42 h -28 v -14 h -14 v 14 h -14 v -14 h -42 v -14 h -42 v -14 h 42 v -14 h -14 v -28 h -14 v 28 h -14 v -28 h -14 v -14 h 28 v -14 M 210 490 h 14 v 14 h -14 v -14"></path><path d="M 238 462 h 14 v 14 h -14 v -14"></path><path d="M 266 462 h 28 v 14 h 28 v 14 h -14 v 14 h -14 v -14 h -14 v -14 h -14 v -14"></path><path d="M 546 462 h 14 v 14 h -14 v -14"></path><path d="M 0 476 h 98 v 98 h -98 v -98 M 14 490 h 70 v 70 h -70 v -70"></path><path d="M 252 476 h 14 v 14 h -14 v -14"></path><path d="M 476 476 h 14 v 14 h -14 v -14"></path><path d="M 560 476 h 14 v 84 h -14 v 14 h -28 v -14 h 14 v -28 h 14 v -56"></path><path d="M 28 504 h 42 v 42 h -42 v -42"></path><path d="M 308 518 h 14 v 14 h -14 v -14"></path><path d="M 434 518 h 14 v 14 h 28 v 14 h 28 v 14 h 14 v 14 h -70 v -14 h 14 v -14 h -42 v -14 h 14 v -14"></path><path d="M 140 532 h 14 v 14 h -14 v -14"></path><path d="M 322 532 h 14 v 14 h -14 v -14"></path><path d="M 392 546 h 28 v 28 h -14 v -14 h -14 v -14"></path><path d="M 112 560 h 14 v 14 h -14 v -14"></path><path d="M 140 560 h 28 v 14 h -28 v -14"></path><path d="M 182 560 h 28 v 14 h -28 v -14"></path></g><g stroke="none" stroke-width="1" fill="#000000" fill-rule="evenodd" transform="translate(200, 200)"><path d="M10.1260536,86.3226185 C10.1430827,43.9578283 44.7692534,9.49989332 87.3140855,9.49989332 C107.950953,9.50836024 127.338378,17.5085161 141.910053,32.0274384 C156.481541,46.545818 164.507838,65.8580235 164.500072,86.384169 C164.482667,128.749038 129.854262,163.210793 87.313776,163.210793 C74.711872,163.20685 62.3410637,160.151307 51.2770678,154.33002 L12.6315581,164.418824 C10.7692372,164.905001 9.07910275,163.1926 9.58961324,161.336801 L19.9098467,123.820881 C13.4869806,112.382802 10.1206509,99.4988685 10.1260536,86.3226185 Z M87.2757263,149.498608 L87.2503764,149.498608 C75.9859758,149.494283 64.9377735,146.482247 55.2997488,140.790121 L53.0073953,139.436021 L29.2487628,145.638862 L35.5902165,122.584187 L34.0978328,120.220187 C27.8139595,110.273295 24.4949358,98.7765932 24.5000058,86.9713714 C24.5137672,52.5248773 52.6745876,24.5 87.300714,24.5 C104.067849,24.5057667 119.828957,31.0128033 131.681475,42.8223502 C143.533268,54.6311762 150.056517,70.3282215 150.049998,87.0218303 C150.035875,121.471208 121.875416,149.498608 87.2757263,149.498608"></path><path d="M121.327876,101.861651 C119.462363,100.932435 110.290525,96.441342 108.580382,95.8210333 C106.870597,95.2014371 105.626921,94.8921734 104.383246,96.7502494 C103.13957,98.6086817 99.5642721,102.791223 98.4759666,104.030416 C97.3880191,105.269252 96.2997136,105.424952 94.4342005,104.495024 C92.5686874,103.565808 86.5575895,101.605475 79.4320525,95.2794656 C73.8863484,90.3561876 70.1420764,84.2763777 69.0541289,82.4175891 C67.9658234,80.5588005 68.9377804,79.5540499 69.87179,78.6283967 C70.7112888,77.7960926 71.7376611,76.4596318 72.6702387,75.3754276 C73.6031742,74.2915796 73.9139141,73.516639 74.5357518,72.2781591 C75.1575895,71.0386105 74.8468496,69.9547625 74.3800239,69.0255463 C73.9139141,68.0963302 70.1828878,58.957019 68.6284726,55.2390855 C67.1141527,51.619133 65.5762053,52.1093943 64.4309785,52.0520309 C63.344105,51.9982304 62.0989976,51.986829 60.8556802,51.986829 C59.6120048,51.986829 57.5907637,52.4514371 55.8806205,54.3098694 C54.1708353,56.168658 49.3515036,60.6608195 49.3515036,69.7990618 C49.3515036,78.9383729 56.0359905,87.766639 56.968926,89.0058314 C57.9018616,90.24538 70.1234606,108.998587 88.8380191,117.040867 C93.2886158,118.954169 96.7636754,120.096449 99.4729833,120.951912 C103.941838,122.365333 108.008663,122.165808 111.223103,121.68766 C114.807351,121.155 122.260453,117.196568 123.815227,112.859751 C125.369642,108.521865 125.369642,104.804644 124.903174,104.030416 C124.437064,103.255831 123.193389,102.791223 121.327876,101.861651"></path></g></svg>